<svg xmlns="http://www.w3.org/2000/svg" width="1038.223" height="788.552" viewBox="0 0 1038.2229 788.55195"><g stroke="#000"><path fill="none" d="M462.643 114.06l-279.547 6.13-13.217 79.608-2.1 50.94 9.747 85.624 136.598 2.75 152.205 1.995"/><path fill="none" d="M466.023 334.008l-282.502-4.25-8.125-79.46 2.032-50.5 11.248-72.475 273.474-6.47M528.07 232.012l-5.433 97.56M520.012 271.49l-3.232 58.485M515.54 271.65l-3.207 57.72M510.69 271.496l-3.205 57.672M505.63 271.422l-3.195 57.543M501.39 271.42l-3.023 54.395"/><path fill="none" d="M502.538 325.674l-36.356-.143-1.698 50.408M496.745 271.398l-3.02 54.365M493.047 271.37l-3.037 54.678"/><path fill="none" d="M671.535 460.69l-1.415 92.73M679.815 402.698L678.1 553.73" stroke-dasharray="6, 6"/><path fill="none" d="M714.825 679.246l-1.428 87.143M751.024 721.727l-.396 24.182M757.612 721.866l-.39 23.617M845.18 658.854l-1.174 64.14M836.096 684.202l-.633 38.517M843.46 768.987l-115.438-1.852M828.147 757.228l-117.016-1.876"/><path fill="none" d="M850.885 452.037l1.396-50.99M841.88 401.445l-.888 50.605" stroke-dasharray="6, 6"/><path fill="none" d="M713.483 650.246l124 1.2M707.08 658.246l138.4 1.2M884.565 412.93l.097-6.934M877.785 439.796l.123-8.8M878.307 401.455l-237.295 1.07M878.483 390.978l-237.43 1.07M869.88 674.32l-19.602.088"/><path fill="none" d="M673.523 398.442l-.256 22.808-20.525-.2-.222 5.7 20.683.3-.23 20.6" stroke-dasharray="6, 6"/><path d="M878.33 401.482l-.018 4.485 6.355-.01.066-4.508M877.715 444.84l.032-5.04 6.438.016-.09 5.032" opacity=".1"/><path fill="none" d="M908.922 761.12l4.342-311.42M900.103 761.332L904.47 448M880.908 675.295l3.187-228.563M874.453 678.802l3.23-231.65M878.33 401.482l-.018 4.485 6.355-.01.066-4.508M877.715 444.84l.032-5.04 6.438.016-.09 5.032M884.19 439.82l.122-8.774M878.16 412.945l.097-7M764.003 538.088h30.406v27.86h-30.407z"/><path d="M872.33 686.27l-25.172.114M872.157 694.967l-25.138.114M872.26 690.803l-25.174.112M872.084 700.416l-25.138.113M871.978 705.015l-25.173.113M871.944 709.68l-25.137.112M871.747 714.24l-25.137.113M871.747 718.413l-25.137.113M871.678 723.504l-25.14.113M871.537 728.666l-25.138.113M871.465 733.404l-25.138.112M871.465 738.424l-25.138.113M871.325 743.8l-25.138.112M871.183 747.76l-25.138.11"/><path fill="none" d="M847.276 680.64l-.105 5.75-.157 8.69-.968 52.807M872.448 680.78l-.102 5.515-.158 8.67-.97 52.85M873.49 747.816l.94-67.39M666.927 133.694l143.26-2.58M680.08 126.222l129.682-2.337M734.202 60.892l1.875-.036v2.154l16.6-.202-.102-2.266 3.104-.06"/><path fill="none" d="M916.424 347.067l37.434 9.697" stroke-dasharray="6, 6"/><path fill="none" d="M979.762 171.658l30.845-18.358M938.942 186.004l67.33-40.073M985.585 181.46l31.222-18.582M955.806 206.69l32.576-17.976 32.41-19.29M1023.51 144.067l7.71 12.684M967.01 179.13l5.98 9.84M484.537 250.168l-1.102 21.156 42.494.225"/><path fill="red" d="M497.016 152.402l31.29.405"/><path fill="none" d="M639.315 233.28l-117.187-1.193 3.328-60.25 1.624.06M525.997 269.273l111.707 1.137"/><path fill="red" d="M467.388 184.576l20.55.267M464.68 236.183c6.912.09 13.77.178 20.62.27M469.404 145.88l-4.623 90.277"/><path fill="#fff" stroke-width="1.108" d="M784.872 254.515c0 5.81-3.905 10.518-8.723 10.518-4.817 0-8.723-4.71-8.723-10.518 0-5.81 3.905-10.518 8.722-10.518s8.722 4.71 8.722 10.518z"/><path fill="#fff" stroke-width="1.108" d="M784.872 254.515c0 5.81-3.905 10.518-8.723 10.518-4.817 0-8.723-4.71-8.723-10.518 0-5.81 3.905-10.518 8.722-10.518s8.722 4.71 8.722 10.518z"/><path fill="#fff" stroke-width="1.108" d="M784.872 254.515c0 5.81-3.905 10.518-8.723 10.518-4.817 0-8.723-4.71-8.723-10.518 0-5.81 3.905-10.518 8.722-10.518s8.722 4.71 8.722 10.518z"/><path fill="#fff" stroke-width="1.108" d="M784.872 254.515c0 5.81-3.905 10.518-8.723 10.518-4.817 0-8.723-4.71-8.723-10.518 0-5.81 3.905-10.518 8.722-10.518s8.722 4.71 8.722 10.518z"/><path fill="#fff" stroke-width="1.108" d="M784.872 254.515c0 5.81-3.905 10.518-8.723 10.518-4.817 0-8.723-4.71-8.723-10.518 0-5.81 3.905-10.518 8.722-10.518s8.722 4.71 8.722 10.518z"/><path fill="#fff" stroke-width="1.108" d="M784.872 254.515c0 5.81-3.905 10.518-8.723 10.518-4.817 0-8.723-4.71-8.723-10.518 0-5.81 3.905-10.518 8.722-10.518s8.722 4.71 8.722 10.518z"/><path fill="#fff" stroke-width="1.108" d="M784.872 254.515c0 5.81-3.905 10.518-8.723 10.518-4.817 0-8.723-4.71-8.723-10.518 0-5.81 3.905-10.518 8.722-10.518s8.722 4.71 8.722 10.518z"/><path fill="#fff" stroke-width="1.108" d="M784.872 254.515c0 5.81-3.905 10.518-8.723 10.518-4.817 0-8.723-4.71-8.723-10.518 0-5.81 3.905-10.518 8.722-10.518s8.722 4.71 8.722 10.518z"/><path fill="#fff" stroke-width="1.108" d="M784.872 254.515c0 5.81-3.905 10.518-8.723 10.518-4.817 0-8.723-4.71-8.723-10.518 0-5.81 3.905-10.518 8.722-10.518s8.722 4.71 8.722 10.518z"/><path fill="#fff" stroke-width="1.108" d="M784.872 254.515c0 5.81-3.905 10.518-8.723 10.518-4.817 0-8.723-4.71-8.723-10.518 0-5.81 3.905-10.518 8.722-10.518s8.722 4.71 8.722 10.518z"/><path fill="#fff" stroke-width="1.108" d="M784.872 254.515c0 5.81-3.905 10.518-8.723 10.518-4.817 0-8.723-4.71-8.723-10.518 0-5.81 3.905-10.518 8.722-10.518s8.722 4.71 8.722 10.518z"/><path fill="#fff" stroke-width="1.108" d="M784.872 254.515c0 5.81-3.905 10.518-8.723 10.518-4.817 0-8.723-4.71-8.723-10.518 0-5.81 3.905-10.518 8.722-10.518s8.722 4.71 8.722 10.518z"/><path fill="#fff" stroke-width="1.108" d="M784.872 254.515c0 5.81-3.905 10.518-8.723 10.518-4.817 0-8.723-4.71-8.723-10.518 0-5.81 3.905-10.518 8.722-10.518s8.722 4.71 8.722 10.518z"/><path fill="#fff" stroke-width="1.108" d="M784.872 254.515c0 5.81-3.905 10.518-8.723 10.518-4.817 0-8.723-4.71-8.723-10.518 0-5.81 3.905-10.518 8.722-10.518s8.722 4.71 8.722 10.518z"/><path fill="#fff" stroke-width="1.108" d="M784.872 254.515c0 5.81-3.905 10.518-8.723 10.518-4.817 0-8.723-4.71-8.723-10.518 0-5.81 3.905-10.518 8.722-10.518s8.722 4.71 8.722 10.518z"/><path fill="#fff" stroke-width="1.108" d="M784.872 254.515c0 5.81-3.905 10.518-8.723 10.518-4.817 0-8.723-4.71-8.723-10.518 0-5.81 3.905-10.518 8.722-10.518s8.722 4.71 8.722 10.518z"/><path fill="#fff" stroke-width="1.108" d="M784.872 254.515c0 5.81-3.905 10.518-8.723 10.518-4.817 0-8.723-4.71-8.723-10.518 0-5.81 3.905-10.518 8.722-10.518s8.722 4.71 8.722 10.518z"/><path fill="#fff" stroke-width="1.108" d="M784.872 254.515c0 5.81-3.905 10.518-8.723 10.518-4.817 0-8.723-4.71-8.723-10.518 0-5.81 3.905-10.518 8.722-10.518s8.722 4.71 8.722 10.518z"/><path fill="#fff" stroke-width="1.108" d="M784.872 254.515c0 5.81-3.905 10.518-8.723 10.518-4.817 0-8.723-4.71-8.723-10.518 0-5.81 3.905-10.518 8.722-10.518s8.722 4.71 8.722 10.518z"/><path fill="#fff" stroke-width="1.108" d="M784.872 254.515c0 5.81-3.905 10.518-8.723 10.518-4.817 0-8.723-4.71-8.723-10.518 0-5.81 3.905-10.518 8.722-10.518s8.722 4.71 8.722 10.518z"/><path fill="#fff" stroke-width="1.108" d="M784.872 254.515c0 5.81-3.905 10.518-8.723 10.518-4.817 0-8.723-4.71-8.723-10.518 0-5.81 3.905-10.518 8.722-10.518s8.722 4.71 8.722 10.518z"/><path fill="#fff" stroke-width="1.108" d="M784.872 254.515c0 5.81-3.905 10.518-8.723 10.518-4.817 0-8.723-4.71-8.723-10.518 0-5.81 3.905-10.518 8.722-10.518s8.722 4.71 8.722 10.518z"/><path fill="#fff" stroke-width="1.108" d="M784.872 254.515c0 5.81-3.905 10.518-8.723 10.518-4.817 0-8.723-4.71-8.723-10.518 0-5.81 3.905-10.518 8.722-10.518s8.722 4.71 8.722 10.518z"/><path fill="#fff" stroke-width="1.108" d="M784.872 254.515c0 5.81-3.905 10.518-8.723 10.518-4.817 0-8.723-4.71-8.723-10.518 0-5.81 3.905-10.518 8.722-10.518s8.722 4.71 8.722 10.518z"/><path fill="#fff" stroke-width="1.108" d="M784.872 254.515c0 5.81-3.905 10.518-8.723 10.518-4.817 0-8.723-4.71-8.723-10.518 0-5.81 3.905-10.518 8.722-10.518s8.722 4.71 8.722 10.518z"/><path fill="#fff" stroke-width="1.108" d="M784.872 254.515c0 5.81-3.905 10.518-8.723 10.518-4.817 0-8.723-4.71-8.723-10.518 0-5.81 3.905-10.518 8.722-10.518s8.722 4.71 8.722 10.518z"/><path fill="#fff" stroke-width="1.108" d="M784.872 254.515c0 5.81-3.905 10.518-8.723 10.518-4.817 0-8.723-4.71-8.723-10.518 0-5.81 3.905-10.518 8.722-10.518s8.722 4.71 8.722 10.518z"/><path stroke-width="1.108" d="M784.872 254.515c0 5.81-3.905 10.518-8.723 10.518-4.817 0-8.723-4.71-8.723-10.518 0-5.81 3.905-10.518 8.722-10.518s8.722 4.71 8.722 10.518z"/><path stroke-width="1.108" d="M784.872 254.515c0 5.81-3.905 10.518-8.723 10.518-4.817 0-8.723-4.71-8.723-10.518 0-5.81 3.905-10.518 8.722-10.518s8.722 4.71 8.722 10.518z"/><path stroke-width="1.108" d="M784.872 254.515c0 5.81-3.905 10.518-8.723 10.518-4.817 0-8.723-4.71-8.723-10.518 0-5.81 3.905-10.518 8.722-10.518s8.722 4.71 8.722 10.518z"/><path stroke-width="1.108" d="M784.872 254.515c0 5.81-3.905 10.518-8.723 10.518-4.817 0-8.723-4.71-8.723-10.518 0-5.81 3.905-10.518 8.722-10.518s8.722 4.71 8.722 10.518z"/><path stroke-width="1.108" d="M784.872 254.515c0 5.81-3.905 10.518-8.723 10.518-4.817 0-8.723-4.71-8.723-10.518 0-5.81 3.905-10.518 8.722-10.518s8.722 4.71 8.722 10.518z"/><path stroke-width="1.108" d="M784.872 254.515c0 5.81-3.905 10.518-8.723 10.518-4.817 0-8.723-4.71-8.723-10.518 0-5.81 3.905-10.518 8.722-10.518s8.722 4.71 8.722 10.518z"/><path stroke-width="1.108" d="M784.872 254.515c0 5.81-3.905 10.518-8.723 10.518-4.817 0-8.723-4.71-8.723-10.518 0-5.81 3.905-10.518 8.722-10.518s8.722 4.71 8.722 10.518z"/><path fill="none" d="M366.68 129.548l-27.3.4v9.7l27.3-.4z"/><path fill="none" d="M331.18 124.048l-.1 22 41.6-.4.1-22.5M465.826 328.714l-8.485-.142.283-11.03 11.598.14-.282 7.92M489.402 376.315l24.45-.262M463.422 395.53l-.566 17.755 35.497.424"/><path fill="none" d="M513.768 395.04l-21.21.24-.426 18.29M215.38 381.248l-3.302 38-1.9 30.7"/><path fill="#fff" d="M210.18 381.148l-2.1 22.5 8 5.1-8.7 4.8-2.3 37.9"/><path fill="none" d="M237.27 380.377l5.39.32-.914 15.475-5.39-.32zM269.992 381.912l5.392.318-.913 15.478-5.39-.32zM235.438 410.652l5.39.318-.91 15.475-5.39-.317zM267.92 411.25l5.39.32-.915 15.475-5.39-.32zM295.08 422.548l11.2.15M294.68 430.548l11.45.25M424.212 439.094l-.956 15.697M433.3 439.2l-.956 16.156M546.897 517.078l53.638 1.635"/><path fill="none" stroke-width=".962" d="M533.863 479.25l8.414.183-.182 8.414-8.414-.183zM605.162 480.953l8.415.183-.183 8.414-8.415-.183z"/><path fill="none" d="M55.68 585.248l101.2-72.4 55.2-29.6 92.8-14.4 117.6 2M37.28 556.448l102-68.8-125.6-67.2M74.48 416.048l90.61 43.458M152.28 399.048l14.8 70.4 20.6-5.8-17.223-83.602M166.26 465.192l20.8-5.646M165.23 460.727l20.8-5.646M164.24 456.695l20.8-5.646M176.863 448.263l7.187-1.95m-20.8 5.645l7.07-1.92M175.873 443.313l7.187-1.95m-20.8 5.645l7.073-1.92M174.883 438.787l7.187-1.95m-20.8 5.647l7.07-1.92M173.894 434.262l7.188-1.95m-20.802 5.645l7.072-1.92M172.904 429.17l7.187-1.95m-20.8 5.646l7.07-1.92M171.912 424.857l7.187-1.95m-20.8 5.646l7.07-1.92M170.924 420.12l7.186-1.95m-20.8 5.645l7.073-1.92"/><path fill="none" d="M169.933 414.817l7.186-1.95m-20.8 5.645c2.595-.72 6.506-1.877 7.073-1.92M164.348 386.32l7.186-1.95m-20.8 5.646l7.072-1.92M168.802 408.947l7.187-1.95m-20.8 5.646l7.07-1.92M168.025 404.492l7.187-1.95m-20.8 5.647l7.072-1.92M166.75 399.967l7.188-1.95m-20.8 5.645l7.072-1.92M165.974 395.37l7.187-1.95m-20.8 5.647l7.073-1.92M165.267 390.775l7.186-1.95m-20.8 5.645l7.072-1.92M192.53 454.862l-1.84-5.162-5.586 1.273M211.267 449.772l19.658-6.01M211.338 456.772l21.708-6.01M669.615 679.44l-2.263 105.643M666.786 679.086l-2.263 105.642M703.412 679.65l-2.263 105.643M667.21 784.94l34.08.143M667.28 780.06l34.084.144M667.38 775.535l34.083.143M667.438 771.178l34.083.143M667.537 765.678l34.083.143M667.838 761.078l34.082.14M667.838 756.277l34.082.142M667.838 751.378l34.082.142M668.037 746.777l34.083.142M668.138 742.978l34.083.143M668.24 737.978l34.08.143M668.338 733.277l34.082.142M668.537 728.378l34.083.142M668.638 723.277l34.083.142M668.638 719.378l34.083.142M668.74 715.378l34.08.142M668.74 710.478l34.08.143M668.938 705.478l34.083.143M652.812 678.828l-1.273 109.317M647.62 679.228l-1.27 109.318M706.1 679.863h-20.575M668.553 672.51l37.76.143M869.48 682.033l-19.6.09M717.09 455.052l-3.433 195.297M710.4 452.998l-4.33 264.967M1029.247 96.925l-100.69 59.396-28.285-1.13-20.93-10.748-20.93-26.02L809.195.19M807.5 80.52L779.214.76"/><path fill="none" d="M718.06 399.948l-.97 55.104M711.28 404.515l-.97 55.104M775.48 659.048l-10.6 35.4-2.8 79.398M783.28 659.048l-11.8 40.602-2.6 74M884.728 390.984l29.34.025-.74 53.74h-8.816l.26-17.68-20.416.143-.042 3.793-6.422.025.24-18.102h6.455l-.124 6.764 20.397.023.25-18.36-20.374.102" stroke-dasharray="6, 6"/><path fill="#b3b3b3" d="M884.728 390.984l29.34.025-.74 53.74h-8.816l.26-17.68-20.416.143-.042 3.793-6.422.025.24-18.102h6.455l-.124 6.764 20.397.023.25-18.36-20.374.102" stroke-dasharray="6, 6"/><path fill="none" d="M845.08 663.646l5.805-211.607M840.994 452.05l-3.51 199.796M894.828 347.24l-13.223 13.294-19.02-12.233 4.384-6.222 10.676 6.506 9.052-8.91M146.805 362.573L118.08 238.448M107.28 240.648l35.575 132.924M512 329.634l111.228 2.05M622.873 340.1l-111.087-2.193M528.027 234.68l111.707 1.137M527.848 237.92l111.706 1.136M527.353 241.95l111.706 1.136M527.495 246.052l111.706 1.136M527.21 250.648l111.707 1.137M526.928 254.96l111.707 1.137M526.433 260.052l111.706 1.137M526.22 264.153l111.708 1.136M958.374 174.312l13.9 23.418M954.275 176.715l13.9 23.42M950.88 178.837l13.63 22.96M947.487 180.958l13.567 22.856M943.81 182.938c4.51 7.602 9.973 15.203 13.536 22.805M938.86 185.908l13.9 23.418M690.58 102.25h4.9v4.4h-4.9z"/><path fill="none" d="M573.87 48.276l-6.222 117.097M613.187 53.084l-6.224 117.097" stroke-dasharray="6, 6"/><path fill="none" d="M666.08 166.848l154.398-2.4M820.33 170.348l-155.052 2.5M652.266 371.2l187.813-2.752.198-30.6c32.587-14.14 48.27-44.638 49.324-73.205.974-26.408-22.55-61.384-48.146-68.193l.22-26.402"/><path fill="none" stroke-width=".913" d="M650.833 363.863l181.264-2.248.46-28.72c28.92-13.27 45.102-40.198 46.036-67.01.863-24.786-21.99-56.198-44.707-62.59l-.37-35.81"/><path fill="none" stroke-width=".88" d="M647.15 360.76l182.274-2.178.44-27.812c27.773-12.85 44.728-39.775 45.625-65.74.828-24.002-22.534-53.573-44.35-59.762l-.07-31-165.842 1.853"/><path fill="none" stroke-width=".843" d="M652.517 357.37l173.707-2.096.42-26.802c26.468-12.384 44.04-38.33 44.895-63.352.79-23.13-22.89-51.627-43.678-57.592l-.068-29.875-162.288 1.786"/><path fill="none" stroke-width=".808" d="M653.924 353.984l169.34-2.018.402-25.792c25.24-11.917 43.39-36.603 44.203-60.68.753-22.26-23.218-49.965-43.044-55.705l-.064-28.75-159.3 1.72"/><path fill="#fff" stroke-width="1.108" d="M784.872 254.515c0 5.81-3.905 10.518-8.723 10.518-4.817 0-8.723-4.71-8.723-10.518 0-5.81 3.905-10.518 8.722-10.518s8.722 4.71 8.722 10.518z"/><path fill="#fff" stroke-width="1.108" d="M784.872 254.515c0 5.81-3.905 10.518-8.723 10.518-4.817 0-8.723-4.71-8.723-10.518 0-5.81 3.905-10.518 8.722-10.518s8.722 4.71 8.722 10.518z"/><path fill="#fff" stroke-width="1.108" d="M784.872 254.515c0 5.81-3.905 10.518-8.723 10.518-4.817 0-8.723-4.71-8.723-10.518 0-5.81 3.905-10.518 8.722-10.518s8.722 4.71 8.722 10.518z"/><path fill="#fff" stroke-width="1.108" d="M784.872 254.515c0 5.81-3.905 10.518-8.723 10.518-4.817 0-8.723-4.71-8.723-10.518 0-5.81 3.905-10.518 8.722-10.518s8.722 4.71 8.722 10.518z"/><path fill="#fff" stroke-width="1.108" d="M784.872 254.515c0 5.81-3.905 10.518-8.723 10.518-4.817 0-8.723-4.71-8.723-10.518 0-5.81 3.905-10.518 8.722-10.518s8.722 4.71 8.722 10.518z"/><path fill="#fff" stroke-width="1.108" d="M784.872 254.515c0 5.81-3.905 10.518-8.723 10.518-4.817 0-8.723-4.71-8.723-10.518 0-5.81 3.905-10.518 8.722-10.518s8.722 4.71 8.722 10.518z"/><path fill="#fff" stroke-width="1.108" d="M784.872 254.515c0 5.81-3.905 10.518-8.723 10.518-4.817 0-8.723-4.71-8.723-10.518 0-5.81 3.905-10.518 8.722-10.518s8.722 4.71 8.722 10.518z"/><path stroke-width="1.108" d="M784.872 254.515c0 5.81-3.905 10.518-8.723 10.518-4.817 0-8.723-4.71-8.723-10.518 0-5.81 3.905-10.518 8.722-10.518s8.722 4.71 8.722 10.518z"/><path fill="#fff" stroke-width="1.108" d="M784.872 254.515c0 5.81-3.905 10.518-8.723 10.518-4.817 0-8.723-4.71-8.723-10.518 0-5.81 3.905-10.518 8.722-10.518s8.722 4.71 8.722 10.518z"/><path fill="#fff" stroke-width="1.108" d="M784.872 254.515c0 5.81-3.905 10.518-8.723 10.518-4.817 0-8.723-4.71-8.723-10.518 0-5.81 3.905-10.518 8.722-10.518s8.722 4.71 8.722 10.518z"/><path fill="#fff" stroke-width="1.108" d="M784.872 254.515c0 5.81-3.905 10.518-8.723 10.518-4.817 0-8.723-4.71-8.723-10.518 0-5.81 3.905-10.518 8.722-10.518s8.722 4.71 8.722 10.518z"/><path fill="#fff" stroke-width="1.108" d="M784.872 254.515c0 5.81-3.905 10.518-8.723 10.518-4.817 0-8.723-4.71-8.723-10.518 0-5.81 3.905-10.518 8.722-10.518s8.722 4.71 8.722 10.518z"/><path fill="#fff" stroke-width="1.108" d="M784.872 254.515c0 5.81-3.905 10.518-8.723 10.518-4.817 0-8.723-4.71-8.723-10.518 0-5.81 3.905-10.518 8.722-10.518s8.722 4.71 8.722 10.518z"/><path fill="#fff" stroke-width="1.108" d="M784.872 254.515c0 5.81-3.905 10.518-8.723 10.518-4.817 0-8.723-4.71-8.723-10.518 0-5.81 3.905-10.518 8.722-10.518s8.722 4.71 8.722 10.518z"/><path fill="#fff" stroke-width="1.108" d="M784.872 254.515c0 5.81-3.905 10.518-8.723 10.518-4.817 0-8.723-4.71-8.723-10.518 0-5.81 3.905-10.518 8.722-10.518s8.722 4.71 8.722 10.518z"/><path fill="#fff" stroke-width="1.108" d="M784.872 254.515c0 5.81-3.905 10.518-8.723 10.518-4.817 0-8.723-4.71-8.723-10.518 0-5.81 3.905-10.518 8.722-10.518s8.722 4.71 8.722 10.518z"/><path fill="none" d="M325.32 50.402l-7.44.246m187.822-6.197l-13.434.444M325.037 70.274l-7.708.275m188.658-6.71l-14.14.503"/><g fill="#b3b3b3"><path d="M142.82 373.613l-1.008-3.94 5.003-7.173 189.55 5.457-.688 22.746-8.438-.285-1.38 28.45h6.653l4.365 11.027 30.6-1.33 4.876-8.012 10.88.1 2.426-29.26-13.74-.286-5.655-9.008-12.625-1.618.906-12.93 17.54.405-.166 6.87h18.184l.292-6.866 20.856.857.285 6.572 16.572.57v-6.57l18.855.57v6l42.57.36 4.287 18.93-88 .71-6.286 54.855-93.714-1.714 3.143-69.428zM670.322 34.81l-136.774-.607-.404 9.375-27.31.84.202 19.434 27.95-.97.37-14.738 35.558.404c6.93-19.534 28.106-.89 49.124-.78l33.71.174-4.496 124.5 2.425.052-1.362 58.488-9.9.404-2.02 46.062-12.122-.202-3.637 97.58-107.683 1.21-.272 19.054 132.605-1.88-4.042-62.022 3.84-78.59 17.172-.607z"/><path d="M58.776 217.242l-34.75 10.102L41 310.58l16.564-4.04 2.45 9.673-18.494 3.85 18.468 89.916 81.216-18.587-.403-8.485 8.485-2.425 3.232 18.587-106.672 22.627-17.375-95.762-5.252-1.212L.59 221.283l46.468-12.122L76.15 56.83l223.042-6.06.403-37.982h64.65l.07 36.335L492.33 44.9l-.402 19.457-166.475 4.268-.428-5.78.342-12.462 16.582-.565-.335-15.21h-23.03l-1.212 35.962-174.152 2.37-20.856-.197-.96 8.333H89.08l-25.054 125.26-4.898.807z"/></g><path d="M525.87 127.137l-7.27-49.295-53.74.404-6.062 100.61 8.92.11 6.84-90.62 38.385-1.615 4.445 42.023zM502.435 329.168l-1.604 47.03 9.688-.126 1.616-46.5zM634.967 543.724H613.55v23.03l-82.428-1.615-.403-22.628-27.478-.81-.81 17.376-83.642-1.616 4.444-102.632 9.08.403-3.827 90.914 64.246 2.424 6.536-153.26 10.03-.21-5.657 121.146 43.64.81c-1.543 15.76 3.066 30.563 23.03 31.92 11.79.072 27.466-.506 29.19-30.31l39.498.41 3.234-188.293 12.122.81-.81 59.8 29.094.404v10.91h-29.497l-.81 42.83 27.072.403-.207 15.784-7.73-.024.06-6.86-19.06-.01-.135 21.716 18.908.308.12-7.88h7.743l-.228 24.446c-7.427-.018-5.178-.034-7.83-.05l.075-6.82-19.19-.2-.607 17.98 19.546.25.074-5.276 7.855-.05-.204 20.332-7.963-.033.077-5.746-19.793-.386-.354 19.244 19.843.17.143-7.678 7.958.03-.317 22.48-7.978-.104.075-5.884-20.127-.38-.05 2.426h-9.9l-.202 14.95 29.9.202.206-5.647 7.98.02-1.722 119.27 9.688.053-.395 7.323-53.134-1.213 1.01-60.81-17.575-.203.404-29.496 17.777.202zM434.148 410.182l-.81 29.092-9.09-.2.2-4.647-118.34-3.583.153-8.135 118.592 3.636 1.01-16.364zM212.02 419.423l83.132 3.082-.404 8.08-83.236-3.434-2.626-4.04z"/><path d="M230.906 443.72l2.07 7.11 51.67-14.587-3.23-7.273zM211.31 449.78l.202 6.867-16.97 4.646-2.022-6.465zM55.54 393.388l1.713 8 92.285-21.714 314.857 7.43-.285-6.287-316.287-8.285zM533.952 64.507l.404-16.364 35.558.404.602-14.176 48.414.212.107 13.185 33.71.174-4.496 124.502-45.606-.19.033-11.492 34.515.332 5.028-99.185-7.054.04-.045-4.847-8.627.028-.118 4.87-20.702.108c.493-6.295-.73-15.76-11.718-16.296-11.635.058-13.044 9.93-12.73 16.43l-17.978.098-.206-4.433-8.482.017.003 4.464-9.495.052-6.06 97.602 33.233.354-.302 11.73-44.885-.188z"/><path fill="#fff" d="M623.522 597.43l9.224-.168v3.638l6.32.06.548-32.79h31.315l-2.226 104.45-31.92-.81 1.817-65.658h-5.656l-.07 4.504-9.793-.118z"/><path d="M724.663 717.96l-18.624.143-.676 48.684 25.11.396.355-11.517-7.52-.14.065-5.28-9.715-.144.43-21.143 10.428-.145zM812.552 768.484l.1-11.5 14.042.187v-4.14l8.283.1.304-22.02-6.767-.2.202-10.002 15.382.102-.497 47.996z"/><path d="M707.08 658.246l-.162 14.41-7.354-.025-.18 7.234 7.35-.002-.037 3.088 19.152.44c5.544 13.91 15.067 18.225 25.38 25.48l-.25 13.774 6.6.024.227-11.824c7.096 2.565 14.792 4.775 32.875.8l-1.6 44.95-32.05-.524.25-11.426-6.602-.324-.226 11.65-8.9-.126-.448 11.525 62.4.974.175-11.5-8.4-.125 2.2-47.676c14.558-7.343 22.795-15.766 26.426-24.976l20.8.176.024-2.076 6.02-.066.2-7.67-6.07-.04.3-14.947-32.5-.302c-1.843 13.726-5.817 36.404-36.4 36.302-30.582-.104-36.317-18.494-38.55-36.9zM877.728 444.89l35.62-.148-4.39 316.51-8.85-.042 1.073-78.32-32.875.14.123-8.703 32.877-.154.3-21.496-20.364.09-.156 9.387-6.418.034.37-24.52 6.4-.035-.125 6.437 20.42-.07.282-20.26-20.384.09-.142 8.22-6.378.048.307-23.31 6.424-.037-.083 6.377 20.377-.094.27-19.425-20.388.1-.09 7.495-6.44.022.342-23.075 6.412-.054-.094 6.912 20.382-.106.242-17.888-20.39.088-.077 5.412-6.436.035.33-20.694 6.382-.013-.09 6.59 20.407-.09.27-18.765-20.382.07-.095 6.575-6.44.024.317-22.143 6.424-.012-.104 6.877 20.417-.113.24-19.046-20.37.102-.094 6.574-6.43.03.282-19.865 6.388-.02-.054 4.58 20.395-.08.284-19.783-20.4.088-.094 6.5-6.4.036.336-23.48 6.395-.042-.117 8.27 20.4-.07.328-23.2-20.397.107-.082 6.2-6.422.022zM884.844 390.96l-.1 10.464-6.414.034.142-10.466zM852.25 391.108l.04 10.475-16.902.076.273-10.483zM819.44 391.258l-.297 10.465-80.76.367.257-10.49zM709.346 402.21l.156-10.476 13.386-.053-.285 10.466zM819.997 130.954l-13.005.247-.06-7.265 6.116-.105.247-14.886c.025-7.66-6.95-11.586-14.085-12.63l-.135-4.058-8.204-.075.066 4.253c-6.478 1.2-13.344 5.106-13.628 12.276l-.358 15.755 6.505-.107.106 7.23-31.694.6.194-7.265 15.132-.424 1.13-64.065-14.15.05c-.112-3.34-.353-7.738-10.258-7.77-7.906-.025-9.592 4.59-9.582 8.185l-14.04.2-1.094 64.406 12.745-.23v7.23l-30.565.566.054-7.248 8.68-.16.23-16.58c-.23-6.258-6.515-10.56-12.752-12.09l-.11-3.814v-.135l-10.3.034.062 4.032c-6.24 1.654-11.795 6.05-11.83 12.537v16.65l5.797-.105v7.248l-14.85.247 1.27-31.537 13.153-21.496 29.84-.565.425-26.87 19.092-.283.143-14.85 30.404-.565-.28 15.132 19.94-.425-.71 28.425 28.428-.424 28.34 71.05c81.346 23.538 92.72 78.05 92.073 119.866l21.395-66.454 53.04 14.878-2.99 9.418-43.055-11.96-40.435 130.03-10.988-2.862 4.933-15.35-15.547 18.388-8.19-7.656c37.626-32.053 55.438-139.213-43.232-171.58l-1.668 2.092-21.503.3-.15-5.98c13.943-5.918 4.6-24.242-.09-33.46zM976.508 163.633l4.446 7.306-13.9 8.257-4.43-7.27zM979.56 161.823l4.45 7.312 5.108-3.047-4.444-7.307zM996.043 152.014l4.438 7.303 6.235-3.706-4.437-7.292zM1005.083 146.632l4.433 7.33 14.685-8.768-4.447-7.294zM986.88 180.693l3.978 6.54-9.306 5.55c9.05 11.414 25.655 12.743 36.836 6.81 14.85-7.882 15.927-25.743 10.085-34.726l-9.048 5.39-3.976-6.595 14.68-8.72 3.97 6.565c7.3 11.93 3.77 34.237-12.512 43.28-12.685 7.044-35.617 5.615-44.635-9.275l-3.998-6.56z"/><path d="M989.924 178.892l4.02 6.55 3.69-2.224-4.01-6.56zM1007.784 168.277l3.99 6.525 4.84-2.92-3.95-6.515zM489.63 152.31l7.398.095-5.086 97.862-7.417-.097zM697.285 166.34h6.077v5.943h-6.077zM679.98 166.605h6.076v5.944h-6.075z"/><path stroke-width="1.00004" d="M715.184 166.166l6.077-.053.053 5.946-6.077.052z"/><path d="M737.227 165.646h6.074v5.943h-6.073zM756.46 165.4h6.076v5.943h-6.075zM777.104 165.116h6.076v5.944h-6.076zM799.525 164.742h6.076v5.943h-6.075z"/><path fill="none" d="M458.8 178.766l-1.422 26.882 9.1.2"/><path d="M57.564 306.54l2.424 9.698 72.256-16.566-9.552-41.215-10.09 2.15 8.48 31.545zM99.587 207.14l7.703 33.488 10.763-2.35-.688-4.065 25.86-161.22 84.448-1.213-4.85-8.08-87.682.808-26.263 140.613zM85.848 70.165l7.273 6.06-24.646 130.512-9.293.404zM325.053 62.492l.13 7.806 152.984-5.485-.783-3.537-5.657-4.042z"/><path fill="none" d="M58.68 217.25l41.1-10.1M68.78 204.75l42.3-10.7M554.64 62.277l80.75-.425M602.73 160.75l-30.55-.3M571.93 172.098l30.75.05"/></g></svg>